<svg id="visual" viewBox="0 0 1920 1080" width="1920" height="1080" xmlns="http://www.w3.org/2000/svg" xmlns:xlink="http://www.w3.org/1999/xlink" version="1.1">
	<path d="M0 293L240 293L240 498L480 498L480 152L720 152L720 347L960 347L960 455L1200 455L1200 185L1440 185L1440 357L1680 357L1680 282L1920 282L1920 314L1920 0L1920 0L1680 0L1680 0L1440 0L1440 0L1200 0L1200 0L960 0L960 0L720 0L720 0L480 0L480 0L240 0L240 0L0 0Z" fill="#4facf7"></path>
	<path d="M0 476L240 476L240 627L480 627L480 411L720 411L720 498L960 498L960 703L1200 703L1200 314L1440 314L1440 498L1680 498L1680 530L1920 530L1920 465L1920 312L1920 280L1680 280L1680 355L1440 355L1440 183L1200 183L1200 453L960 453L960 345L720 345L720 150L480 150L480 496L240 496L240 291L0 291Z" fill="#2b9dfc"></path>
	<path d="M0 649L240 649L240 779L480 779L480 552L720 552L720 649L960 649L960 811L1200 811L1200 444L1440 444L1440 563L1680 563L1680 681L1920 681L1920 627L1920 463L1920 528L1680 528L1680 496L1440 496L1440 312L1200 312L1200 701L960 701L960 496L720 496L720 409L480 409L480 625L240 625L240 474L0 474Z" fill="#008cff"></path>
	<path d="M0 973L240 973L240 973L480 973L480 995L720 995L720 865L960 865L960 1005L1200 1005L1200 1005L1440 1005L1440 865L1680 865L1680 919L1920 919L1920 897L1920 625L1920 679L1680 679L1680 561L1440 561L1440 442L1200 442L1200 809L960 809L960 647L720 647L720 550L480 550L480 777L240 777L240 647L0 647Z" fill="#007aff"></path>
	<path d="M0 1081L240 1081L240 1081L480 1081L480 1081L720 1081L720 1081L960 1081L960 1081L1200 1081L1200 1081L1440 1081L1440 1081L1680 1081L1680 1081L1920 1081L1920 1081L1920 895L1920 917L1680 917L1680 863L1440 863L1440 1003L1200 1003L1200 1003L960 1003L960 863L720 863L720 993L480 993L480 971L240 971L240 971L0 971Z" fill="#0066ff"></path>
</svg>