<?xml version="1.0" encoding="utf-8"?>
<!-- Generator: Adobe Illustrator 27.1.1, SVG Export Plug-In . SVG Version: 6.00 Build 0)  -->
<svg version="1.1" id="visual" xmlns="http://www.w3.org/2000/svg" xmlns:xlink="http://www.w3.org/1999/xlink" x="0px" y="0px"
	 viewBox="0 0 1920 1080" style="enable-background:new 0 0 1920 1080;" xml:space="preserve">
<style type="text/css">
	.st0{fill:#2B9DFC;}
</style>
<path class="st0" d="M0,476h240v151h240V411h240v87h240v205h240V314h240v184h240v32h240v-65V312v-32h-240v75h-240V183h-240v270H960
	V345H720V150H480v346H240V291H0V476z"/>
<polygon class="st0" points="0,476 240,476 240,627 480,627 480,411 720,411 720,498 960,498 960,703 1200,703 1200,314 1440,314 
	1440,498 1680,498 1680,530 1920,530 1920,1080 0,1080 "/>
</svg>
