<?xml version="1.0" encoding="utf-8"?>
<!-- Generator: Adobe Illustrator 27.1.1, SVG Export Plug-In . SVG Version: 6.00 Build 0)  -->
<svg version="1.1" id="visual" xmlns="http://www.w3.org/2000/svg" xmlns:xlink="http://www.w3.org/1999/xlink" x="0px" y="0px"
	 viewBox="0 0 1920 1080" style="enable-background:new 0 0 1920 1080;" xml:space="preserve">
<style type="text/css">
	.st0{fill:#007AFF;}
</style>
<path class="st0" d="M0,973h240l0,0h240v22h240V865h240v140h240l0,0h240V865h240v54h240v-22V625v54h-240V561h-240V442h-240v367H960
	V647H720v-97H480v227H240V647H0V973z"/>
<polyline class="st0" points="0,973 480,973 480,995 720,995 720,865 960,865 960,1005 1440,1005 1440,865 1680,865 1680,919 
	1920,919 1920,1080 0,1080 "/>
</svg>
