<?xml version="1.0" encoding="utf-8"?>
<!-- Generator: Adobe Illustrator 27.1.1, SVG Export Plug-In . SVG Version: 6.00 Build 0)  -->
<svg version="1.1" id="visual" xmlns="http://www.w3.org/2000/svg" xmlns:xlink="http://www.w3.org/1999/xlink" x="0px" y="0px"
	 viewBox="0 0 1920 1080" style="enable-background:new 0 0 1920 1080;" xml:space="preserve">
<style type="text/css">
	.st0{fill:#008CFF;}
</style>
<path class="st0" d="M0,649h240v130h240V552h240v97h240v162h240V444h240v119h240v118h240v-54V463v65h-240v-32h-240V312h-240v389H960
	V496H720v-87H480v216H240V474H0V649z"/>
<polygon class="st0" points="0,649 240,649 240,779 480,779 480,552 720,552 720,649 960,649 960,811 1200,811 1200,444 1440,444 
	1440,563 1680,563 1680,681 1920,681 1920,1080 0,1080 "/>
</svg>
